<svg width="26" height="25" viewBox="0 0 26 25" fill="none" xmlns="http://www.w3.org/2000/svg">
<path opacity="0.6" d="M9.67297 2.47461C13.5499 2.47461 16.4698 5.39453 16.4698 9.27148C16.4698 13.1484 13.3156 16.3047 9.4386 16.3047C5.56165 16.3047 2.64172 13.3848 2.64172 9.50781C2.64172 5.63086 5.79602 2.47461 9.67297 2.47461Z" fill="#81D4FA"/>
<path d="M9.67297 2.47462C13.5499 2.47462 16.4698 5.39454 16.4698 9.27149C16.4698 13.1484 13.3155 16.3047 9.43859 16.3047C5.56164 16.3047 2.64171 13.3848 2.64171 9.50782C2.64171 5.63086 5.79601 2.47462 9.67297 2.47462ZM3.88976 3.2754C0.0460113 7.11915 1.93273 12.7344 3.43468 14.2676C6.21398 17.1035 11.4093 18.7188 15.296 14.8301C18.8956 11.2305 17.6027 6.66602 15.0675 3.87501C13.3839 2.02344 7.73156 -0.566401 3.88976 3.2754Z" fill="#616161"/>
<path d="M19.8585 17.7461L18.2316 19.3828L14.3995 15.5156C14.3995 15.5156 14.0753 14.8926 14.716 14.252C15.3566 13.6113 16.0265 13.8789 16.0265 13.8789L19.8585 17.7461Z" fill="#BDBDBD"/>
<path d="M17.6554 15.0313C17.4347 14.8555 16.6691 14.4453 15.8273 15.2813C14.9874 16.1172 15.3292 16.7773 15.4952 17.0215C15.4952 17.0215 21.4581 23.6367 21.7296 23.9102C22.13 24.3106 22.9523 23.9688 23.714 23.207C24.4757 22.4453 24.8429 21.709 24.4132 21.2793C24.0636 20.9297 17.8761 15.207 17.6554 15.0313Z" fill="#616161"/>
<path d="M8.94836 1.6875C12.8253 1.6875 15.9796 4.8418 15.9796 8.71875C15.9796 12.5957 12.8253 15.75 8.94836 15.75C5.07141 15.75 1.91711 12.5957 1.91711 8.71875C1.91711 4.8418 5.07141 1.6875 8.94836 1.6875ZM8.94836 0.914062C4.63977 0.914062 1.14563 4.4082 1.14563 8.7168C1.14563 13.0254 4.63977 16.5195 8.94836 16.5195C13.257 16.5195 16.7511 13.0273 16.7511 8.7168C16.7511 4.40625 13.257 0.914062 8.94836 0.914062Z" fill="#BDBDBD"/>
<path d="M23.715 23.2076C24.4206 22.5021 24.7724 21.71 24.5008 21.4385C24.2293 21.1669 23.4372 21.5188 22.7317 22.2243C22.0262 22.9299 21.6744 23.722 21.9459 23.9935C22.2174 24.265 23.0095 23.9132 23.715 23.2076Z" fill="#424242"/>
<path d="M5.54993 4.60936C4.2765 5.94334 3.7765 7.41991 3.76478 9.06053C3.76087 9.66405 3.84485 10.3027 4.2179 10.7754C4.59095 11.248 5.33118 11.4726 5.81946 11.1191C6.14368 10.8847 6.27845 10.4765 6.43665 10.1113C6.67884 9.55077 7.01673 9.02928 7.43275 8.58006C7.95228 8.01756 8.589 7.56834 9.08509 6.98631C9.58118 6.40428 9.9347 5.61717 9.73548 4.87694C9.53821 4.15233 8.82337 3.64061 8.07923 3.55663C7.33509 3.47264 6.28431 3.83983 5.54993 4.60936Z" fill="url(#paint0_linear_89_5486)"/>
<path opacity="0.59" d="M12.88 14.8008C12.88 14.711 12.923 14.6289 12.9952 14.5762C13.3761 14.3047 14.4015 13.6699 15.2862 11.9824C15.7999 10.9981 15.9952 10.1777 16.0499 9.88478C16.2042 9.05665 16.6378 9.334 16.5773 9.86915C16.507 10.4785 15.9777 13.1602 13.3195 15.0215C13.1339 15.1524 12.88 15.0274 12.88 14.8008ZM5.52453 2.22462C5.49914 2.47853 5.0675 2.71876 4.99133 2.76759C4.5968 3.0215 3.62023 3.51954 2.72766 5.20314C2.31164 5.98634 2.01281 6.79298 1.91125 7.19337C1.74523 7.84767 1.29797 7.71681 1.38391 7.18361C1.48156 6.57814 2.13586 3.92384 4.87609 2.18751C5.06945 2.06642 5.55773 1.88869 5.52453 2.22462Z" fill="white"/>
<path d="M11.2921 14.4395C10.423 14.5977 10.1652 14.2344 10.2745 13.873C10.3605 13.5859 10.6808 13.4629 10.9679 13.377C12.4991 12.918 13.7921 11.6504 14.7316 10.3926C14.7531 11.4844 14.4659 12.1172 13.9406 12.7656C13.4269 13.3965 12.6281 14.1953 11.2921 14.4395Z" fill="url(#paint1_linear_89_5486)"/>
<defs>
<linearGradient id="paint0_linear_89_5486" x1="4.35169" y1="3.5203" x2="7.55403" y2="8.71405" gradientUnits="userSpaceOnUse">
<stop offset="0.285" stop-color="white"/>
<stop offset="1" stop-color="white" stop-opacity="0"/>
</linearGradient>
<linearGradient id="paint1_linear_89_5486" x1="11.8841" y1="18.6541" x2="12.6915" y2="10.3109" gradientUnits="userSpaceOnUse">
<stop offset="0.285" stop-color="white"/>
<stop offset="1" stop-color="white" stop-opacity="0"/>
</linearGradient>
</defs>
</svg>
