<svg width="21" height="28" viewBox="0 0 21 28" fill="none" xmlns="http://www.w3.org/2000/svg">
<path d="M17.501 0.875L11.9885 9.1875H14.7448L20.2573 0.875H17.501Z" fill="#428BC1"/>
<path d="M14.7447 0.875L9.18848 9.1875H11.9885L17.501 0.875H14.7447Z" fill="#E8E8E8"/>
<path d="M11.9885 0.875L6.43225 9.1875H9.1885L14.7448 0.875H11.9885Z" fill="#ED4C5C"/>
<path d="M6.4323 9.1875H9.18855L3.67605 0.875H0.9198L6.4323 9.1875Z" fill="#ED4C5C"/>
<path d="M9.18852 9.1875H11.9885L6.43228 0.875H3.67603L9.18852 9.1875Z" fill="#E8E8E8"/>
<path d="M11.9885 9.1875H14.7448L9.1885 0.875H6.43225L11.9885 9.1875Z" fill="#428BC1"/>
<path d="M10.5885 27.125C15.3485 27.125 19.2072 23.2663 19.2072 18.5063C19.2072 13.7463 15.3485 9.88751 10.5885 9.88751C5.82847 9.88751 1.96973 13.7463 1.96973 18.5063C1.96973 23.2663 5.82847 27.125 10.5885 27.125Z" fill="#FFC200"/>
</svg>
