<svg width="43" height="31" viewBox="0 0 43 31" fill="none" xmlns="http://www.w3.org/2000/svg">
<path d="M7.7334 1C7.7334 4.16875 6.02715 7 3.6084 7C6.02715 7 7.7334 9.83125 7.7334 13C7.7334 9.83125 9.43965 7 11.8584 7C9.43965 7 7.7334 4.16875 7.7334 1Z" fill="#FFE54D"/>
<path d="M15.6084 2C15.6084 3.58437 14.7811 5 13.6084 5C14.7811 5 15.6084 6.41563 15.6084 8C15.6084 6.41563 16.4357 5 17.6084 5C16.4357 5 15.6084 3.58437 15.6084 2Z" fill="#FFE54D"/>
<path d="M31.7334 0C31.7334 3.16875 30.0271 6 27.6084 6C30.0271 6 31.7334 8.83125 31.7334 12C31.7334 8.83125 33.4396 6 35.8584 6C33.4396 6 31.7334 3.16875 31.7334 0Z" fill="#FFE54D"/>
<path d="M39.6084 8C39.6084 9.32031 38.7811 10.5 37.6084 10.5C38.7811 10.5 39.6084 11.6797 39.6084 13C39.6084 11.6797 40.4357 10.5 41.6084 10.5C40.4357 10.5 39.6084 9.32031 39.6084 8Z" fill="#FFE54D"/>
<path d="M11.6709 0C11.6709 1.575 10.8084 3 9.6084 3C10.8084 3 11.6709 4.425 11.6709 6C11.6709 4.425 12.5334 3 13.7334 3C12.5334 3 11.6709 1.575 11.6709 0Z" fill="#6ADBC6"/>
<path d="M38.6709 3C38.6709 4.575 37.8084 6 36.6084 6C37.8084 6 38.6709 7.425 38.6709 9C38.6709 7.425 39.5334 6 40.7334 6C39.5334 6 38.6709 4.575 38.6709 3Z" fill="#6ADBC6"/>
<path d="M12.6084 7C12.6084 8.575 11.7459 10 10.5459 10C11.7459 10 12.6084 11.425 12.6084 13C12.6084 11.425 13.4709 10 14.6709 10C13.4709 10 12.6084 8.575 12.6084 7Z" fill="#FF73C0"/>
<path d="M35.6709 6C35.6709 7.575 34.8084 9 33.6084 9C34.8084 9 35.6709 10.425 35.6709 12C35.6709 10.425 36.5334 9 37.7334 9C36.5334 9 35.6709 7.575 35.6709 6Z" fill="#FF73C0"/>
<g clip-path="url(#clip0_114_4)">
<path d="M33.0398 29.4115C33.0398 30.2883 32.768 31 32.4368 31H14.7706C14.4391 31 14.168 30.2883 14.168 29.4115C14.168 28.5363 14.4391 27.8253 14.7706 27.8253H32.4368C32.7687 27.8253 33.0398 28.5363 33.0398 29.4115Z" fill="#4C6A76"/>
<path d="M21.4925 29.4115C21.4925 28.5363 21.7636 27.8253 22.0958 27.8253H14.7706C14.4391 27.8253 14.168 28.5363 14.168 29.4115C14.168 30.2883 14.4391 31 14.7706 31H22.0962C21.7636 31 21.4925 30.2883 21.4925 29.4115Z" fill="#243438"/>
<path d="M23.9441 15.3175C24.1395 15.5147 24.1455 15.8275 23.9572 16.0157C23.769 16.204 23.4558 16.1969 23.2605 16.0011L16.23 8.97099C16.0335 8.77374 16.0267 8.46136 16.2153 8.27274C16.4036 8.08449 16.7163 8.09161 16.9121 8.28886L23.9441 15.3175Z" fill="#2E4145"/>
<path d="M23.2635 15.3175C23.0677 15.5147 23.061 15.8275 23.2496 16.0157C23.4382 16.204 23.7506 16.1969 23.946 16.0011L30.9765 8.97099C31.173 8.77374 31.1794 8.46136 30.9911 8.27274C30.8029 8.08449 30.4901 8.09161 30.2936 8.28886L23.2635 15.3175Z" fill="#2E4145"/>
<path d="M35.5851 14.5225C35.5618 13.2078 34.4286 12.1458 33.0302 12.1458H14.1677C12.7689 12.1458 11.6346 13.2078 11.6109 14.5225H11.6064V26.5334H11.6109C11.6342 27.8496 12.7686 28.9109 14.1662 28.9109H33.0249C34.4241 28.9109 35.5581 27.8496 35.5813 26.5334H35.5858V14.5225H35.5817" fill="#2E4145"/>
<path d="M28.491 12.7495H18.4688C15.306 12.7495 12.7324 15.1251 12.7324 18.0445V21.8755C12.7324 24.7941 15.306 27.1668 18.4688 27.1668H28.4914C31.6545 27.1668 34.2285 24.7926 34.2285 21.8755V18.0445C34.2285 15.1259 31.6542 12.7495 28.491 12.7495Z" fill="#243438"/>
<path d="M16.0948 27.5575C16.0816 27.5459 16.064 27.5429 16.0408 27.5489L15.9005 27.586C15.8559 27.5973 15.8349 27.6265 15.8349 27.6719V27.8204C15.8349 27.8425 15.8394 27.8586 15.8495 27.8688C15.8563 27.8763 15.8664 27.8789 15.8795 27.8789C15.8874 27.8789 15.8949 27.8774 15.9028 27.8759L16.043 27.8403C16.0861 27.829 16.1079 27.7998 16.1094 27.7529V27.6044C16.1094 27.5826 16.1038 27.5665 16.0948 27.5575ZM16.0205 27.727C16.0205 27.7446 16.0134 27.7529 15.9973 27.7578L15.9474 27.7705C15.944 27.772 15.9418 27.772 15.9418 27.772C15.9343 27.772 15.9309 27.7705 15.9286 27.7675C15.9246 27.7631 15.9224 27.7573 15.9226 27.7514V27.697C15.9226 27.6809 15.9305 27.6708 15.9459 27.6666L15.9969 27.6535C16.0044 27.652 16.0115 27.6535 16.0153 27.6569C16.0179 27.6599 16.0201 27.6651 16.0201 27.6738L16.0205 27.727ZM15.752 27.67C15.752 27.6246 15.731 27.5954 15.6864 27.5841L15.5476 27.547C15.5229 27.541 15.5045 27.544 15.4936 27.5556C15.4835 27.5643 15.479 27.5804 15.479 27.6025V27.751C15.479 27.7979 15.5011 27.8271 15.5439 27.8384L15.6849 27.874C15.6924 27.877 15.701 27.877 15.701 27.877C15.7201 27.877 15.731 27.874 15.7378 27.8669C15.7479 27.8568 15.7524 27.8406 15.7524 27.8185L15.752 27.67ZM15.6601 27.7668C15.6571 27.7698 15.6526 27.7713 15.6526 27.7713C15.6526 27.7713 15.6433 27.7713 15.6403 27.7698L15.59 27.7566C15.5754 27.7521 15.5668 27.7435 15.5668 27.7259V27.673C15.5668 27.6648 15.5675 27.6584 15.5728 27.6554C15.5758 27.6524 15.5829 27.6509 15.5911 27.6524L15.6406 27.6655C15.656 27.67 15.6646 27.6798 15.6646 27.6959V27.7506C15.6646 27.7574 15.6628 27.7638 15.6601 27.7668ZM15.851 28.0563L15.8596 28.0544L15.9091 28.0416C15.9253 28.0368 15.9328 28.027 15.9328 28.0109V27.9561C15.9328 27.9486 15.9305 27.9438 15.9268 27.9408C15.9238 27.9359 15.9166 27.9344 15.9076 27.9374L15.8581 27.9501C15.8428 27.9531 15.8349 27.9633 15.8349 27.9809V28.0338C15.8349 28.0424 15.8364 28.0484 15.8401 28.0514C15.8414 28.053 15.8431 28.0542 15.845 28.0551C15.8469 28.0559 15.8489 28.0563 15.851 28.0563ZM15.737 28.0563L15.7284 28.0544L15.6778 28.0416C15.6639 28.0368 15.6545 28.027 15.6545 28.0109V27.9561C15.6545 27.9486 15.6568 27.9438 15.6613 27.9408C15.6658 27.9359 15.6714 27.9344 15.68 27.9374L15.7299 27.9501C15.7456 27.9531 15.7531 27.9633 15.7531 27.9809V28.0338C15.7531 28.0424 15.7516 28.0484 15.7486 28.0514C15.7456 28.0544 15.7408 28.0563 15.737 28.0563ZM17.0491 27.5358C17.036 27.5245 17.0184 27.5196 16.9948 27.5275L16.8538 27.5624C16.8106 27.574 16.7889 27.6033 16.7889 27.6501V27.7986C16.7889 27.8208 16.7934 27.8354 16.8028 27.8455C16.8114 27.8532 16.8227 27.8572 16.8343 27.8568C16.841 27.8568 16.8489 27.8553 16.8575 27.8538L16.9963 27.8166C17.0409 27.8058 17.0619 27.7765 17.0634 27.7296V27.5815C17.0634 27.5605 17.0578 27.5444 17.0491 27.5358ZM16.9745 27.7056C16.9745 27.7218 16.967 27.7315 16.9513 27.7364L16.9018 27.7495H16.8931C16.8931 27.7495 16.8856 27.7495 16.883 27.7461C16.883 27.7413 16.8763 27.7364 16.8763 27.7285V27.6753C16.8763 27.6599 16.8856 27.6483 16.9003 27.6438L16.9513 27.6321C16.9544 27.6307 16.9579 27.6302 16.9613 27.6308C16.9647 27.6313 16.9678 27.6328 16.9704 27.6351C16.9734 27.6381 16.9749 27.6438 16.9749 27.6513L16.9745 27.7056ZM16.7068 27.6513C16.7068 27.6044 16.6846 27.5751 16.6404 27.5635L16.5016 27.5286C16.4776 27.5208 16.46 27.5256 16.448 27.5369C16.4379 27.5451 16.4334 27.5613 16.4334 27.5838V27.7315C16.4334 27.7784 16.4555 27.8076 16.4994 27.8189L16.6396 27.8556L16.6554 27.8586C16.6745 27.8586 16.6846 27.8541 16.6914 27.847C16.7023 27.8369 16.7068 27.8226 16.7068 27.8009V27.6513ZM16.6141 27.7476C16.6119 27.751 16.6074 27.751 16.6074 27.751H16.5988L16.5448 27.7379C16.5294 27.733 16.5215 27.7233 16.5215 27.7071V27.6528C16.5215 27.6453 16.523 27.6396 16.5275 27.6366C16.5298 27.6321 16.5376 27.6306 16.5466 27.6336L16.5961 27.6453C16.603 27.6471 16.6091 27.6512 16.6134 27.6569C16.6177 27.6626 16.6199 27.6696 16.6198 27.6768V27.73C16.6196 27.7363 16.6177 27.7424 16.6141 27.7476ZM16.8046 28.03C16.8046 28.03 16.8091 28.03 16.8125 28.0281L16.862 28.0169C16.8781 28.012 16.886 28.0023 16.886 27.9846V27.9318C16.886 27.9243 16.8845 27.9186 16.88 27.9141C16.877 27.9096 16.8699 27.9096 16.8609 27.9111L16.8114 27.9243C16.7968 27.9288 16.7881 27.9389 16.7881 27.9558V28.009C16.7881 28.0169 16.7904 28.0221 16.7941 28.0251C16.7956 28.0281 16.7994 28.03 16.8046 28.03ZM16.6899 28.03L16.682 28.0281L16.6325 28.0169C16.6179 28.012 16.6093 28.0023 16.6093 27.9846V27.9318C16.6093 27.9243 16.6108 27.9186 16.6145 27.9141C16.6198 27.9096 16.6254 27.9096 16.6351 27.9111L16.6839 27.9243C16.7 27.9288 16.7071 27.9389 16.7071 27.9558V28.009C16.7071 28.0169 16.7056 28.0221 16.7026 28.0251C16.6996 28.0281 16.6951 28.03 16.6899 28.03Z" fill="white"/>
<path d="M33.4523 21.8016C33.4523 24.409 31.1479 26.5221 28.3046 26.5221H18.6608C15.8183 26.5221 13.5146 24.409 13.5146 21.8016V18.1165C13.5146 15.5084 15.8186 13.396 18.6608 13.396H28.305C31.149 13.396 33.453 15.5084 33.453 18.1165L33.4523 21.8016Z" fill="#28A6DE"/>
<path d="M22.5323 21.6662C21.3143 19.1676 21.1568 16.1406 21.8918 13.3975H18.6608C15.8183 13.3975 13.5146 15.5099 13.5146 18.118V21.8024C13.5146 24.4105 15.8186 26.5229 18.6608 26.5229H27.4208C25.3699 25.3529 23.6246 23.9106 22.5308 21.6681" fill="#58C5E8"/>
<path d="M14.9095 27.1007C14.8795 27.0715 14.8337 27.0614 14.7764 27.0786L14.4317 27.1686C14.323 27.1964 14.269 27.2717 14.269 27.388L14.2671 27.763C14.2671 27.8196 14.281 27.8612 14.305 27.8826C14.3226 27.9036 14.3474 27.9134 14.3804 27.9134C14.3987 27.9134 14.4149 27.907 14.4351 27.9036L14.7797 27.8144C14.8889 27.7851 14.9429 27.7109 14.9447 27.5909V27.2166C14.9447 27.1611 14.9297 27.1202 14.9095 27.0989M14.7261 27.5267C14.7261 27.5702 14.707 27.5939 14.6691 27.607L14.5442 27.6377C14.5367 27.6392 14.5296 27.6392 14.5296 27.6392C14.5127 27.6392 14.5041 27.6377 14.4959 27.631C14.4891 27.6231 14.4857 27.6085 14.4857 27.5867V27.454C14.4857 27.4135 14.5037 27.3869 14.542 27.3756L14.6669 27.3434C14.6882 27.337 14.704 27.34 14.7141 27.3509C14.7227 27.3584 14.7257 27.373 14.7257 27.391V27.5267M14.0657 27.3887C14.0657 27.2729 14.011 27.1971 13.9056 27.1694L13.5587 27.079C13.4987 27.0614 13.4556 27.0715 13.4264 27.1011C13.4024 27.1232 13.3911 27.1641 13.3911 27.2196V27.5931C13.3934 27.7127 13.4455 27.7881 13.5542 27.8166L13.897 27.9059C13.9156 27.9124 13.9351 27.9158 13.9547 27.916C13.9885 27.916 14.0147 27.9059 14.0309 27.8852C14.0571 27.8631 14.0684 27.8222 14.0684 27.766L14.0657 27.3872M13.8362 27.6314C13.8295 27.6389 13.8201 27.64 13.8092 27.64C13.8092 27.64 13.7969 27.64 13.7897 27.6381L13.6667 27.6077C13.6289 27.5946 13.6075 27.5706 13.6075 27.5271V27.391C13.6075 27.3722 13.612 27.358 13.6221 27.3509C13.6315 27.3407 13.645 27.3377 13.669 27.3434L13.792 27.3756C13.8299 27.3869 13.852 27.4135 13.852 27.454V27.5882C13.852 27.6092 13.8467 27.6239 13.8362 27.6314ZM14.3076 28.3555C14.3076 28.3555 14.3207 28.3555 14.3275 28.3525L14.4494 28.3217C14.4895 28.3101 14.5094 28.2831 14.5094 28.2426V28.1054C14.5094 28.0862 14.5041 28.0735 14.4962 28.0664C14.4884 28.0532 14.47 28.0517 14.4494 28.0577L14.3245 28.0896C14.287 28.0979 14.2682 28.1267 14.2682 28.1702L14.2667 28.303C14.2667 28.3251 14.2671 28.3367 14.2806 28.3469C14.2883 28.3528 14.2979 28.3559 14.3076 28.3555ZM14.0279 28.3555C14.0204 28.3555 14.0147 28.3555 14.0065 28.3525L13.8839 28.3217C13.8665 28.3173 13.8511 28.3071 13.8405 28.2926C13.8298 28.2782 13.8245 28.2605 13.8254 28.2426V28.1054C13.8254 28.0862 13.8299 28.0735 13.8392 28.0664C13.8486 28.0532 13.8655 28.0517 13.8839 28.0577L14.0095 28.0896C14.047 28.0979 14.068 28.1267 14.068 28.1702V28.303C14.068 28.3251 14.0627 28.3367 14.0571 28.3469C14.0482 28.352 14.0381 28.3549 14.0279 28.3555Z" fill="#F05A2A"/>
</g>
<defs>
<clipPath id="clip0_114_4">
<rect width="24" height="24" fill="white" transform="translate(11.6084 7)"/>
</clipPath>
</defs>
</svg>
