<svg width="27" height="27" viewBox="0 0 27 34" fill="none" xmlns="http://www.w3.org/2000/svg">
<path d="M18.3032 31.7748L18.3011 28.7605H8.6254C8.65493 28.7605 8.63173 31.2116 8.62751 31.7853H7.2522V33.9685H19.5393V31.7853L18.3032 31.7748Z" fill="#865C50"/>
<path d="M20.4864 20.5191C20.9547 20.1331 23.6589 18.4604 25.1397 17.0513C26.2956 15.9502 26.7428 13.0752 24.9646 11.6766C22.6527 9.86048 20.4337 11.7674 20.4337 11.7674C20.4337 11.7674 20.2396 10.6895 18.8896 10.0566C17.1894 9.25931 15.0358 8.96188 13.0551 8.9872C11.1355 9.0104 9.36788 9.24243 7.7985 10.0124C6.39366 10.7021 6.30928 11.6851 6.30928 11.6851C6.30928 11.6851 4.46569 9.92376 2.20655 11.3539C-0.0504807 12.7862 0.597097 15.6549 1.68343 16.8594C3.09882 18.4288 4.79897 19.2282 5.571 19.8062C6.34093 20.3841 7.07921 20.9347 7.07921 21.4304C7.07921 21.9261 6.85983 22.0358 6.77546 22.0084C6.69319 21.9809 6.54764 21.4979 6.17007 21.7046C5.65538 21.9894 5.81147 23.1369 6.88514 23.2466C7.92507 23.3541 8.12335 22.2552 8.12335 22.2552L8.28788 21.1815L9.99436 22.3649L11.8654 23.9068L11.8105 25.2273C11.8105 25.2273 11.7283 26.2461 11.2326 27.1278C10.7369 28.0095 9.93952 28.8891 9.93952 28.8891L9.91421 29.6865L16.8519 29.522L16.6326 28.752C16.6326 28.752 15.7382 27.7691 15.2003 26.7144C14.8164 25.9592 14.7552 25.1977 14.7552 25.1977L14.7383 23.3035L18.3391 21.0971C18.3391 21.0971 18.7251 21.4009 18.6702 21.5106C18.6154 21.6202 18.6027 22.7445 19.4676 23.1622C20.3219 23.5756 21.0095 23.0525 20.9273 22.3353C20.845 21.6202 20.4041 21.867 20.267 21.9767C20.1299 22.0864 19.8262 22.1138 19.7439 21.7004C19.6595 21.2912 20.0181 20.9052 20.4864 20.5191ZM2.76132 16.6252L1.93655 14.1151L2.93428 12.8094L4.05225 12.4824C4.05225 12.4824 5.4803 13.5477 5.53093 13.6341C5.58155 13.7206 6.44218 15.4904 6.44218 15.4904L7.57702 19.5995L2.76132 16.6252ZM18.974 19.9264C18.9908 19.8399 20.0392 15.5241 20.0392 15.5241C20.0392 15.4735 20.7775 15.1297 20.7775 15.0601C20.7775 14.9905 22.1191 12.8073 22.1191 12.8073L24.355 12.8938L24.8191 15.1107L23.7011 16.9501C23.7032 16.9522 18.9571 20.0108 18.974 19.9264Z" fill="#FEC417"/>
<path d="M25.2958 14.4631C25.1313 12.4972 23.1864 12.0268 22.387 12.3116C21.5875 12.5963 21.0686 13.13 20.8914 13.8894C20.748 14.5032 20.6045 14.9124 20.44 14.9757C20.2586 15.0432 20.092 15.0158 20.092 15.0158C20.092 15.0158 20.0624 13.6869 20.0709 13.1511C20.092 12.0458 20.4295 11.7631 20.4295 11.7631C20.4295 11.7631 20.3577 11.3898 20.2143 11.183C20.0709 10.9784 19.8051 10.7126 19.8051 10.7126C19.8051 10.7126 19.8663 11.2442 19.6005 11.3687C19.3347 11.4931 19.0478 11.3075 19.0478 11.3075L19.3136 12.4128C19.3136 12.4128 18.8833 17.9225 18.8432 18.0448C18.8031 18.1672 17.1852 20.9726 17.1852 20.9726C17.1852 20.9726 16.2423 21.8544 15.793 22.059C15.3416 22.2636 14.9535 22.7973 13.2133 22.8162C11.473 22.8373 9.9775 21.4641 9.9775 21.4641L8.48195 20.0298L7.37664 16.7729L7.21211 13.4548L7.28172 12.2483L7.33023 11.7441L7.25219 11.4889C7.25219 11.4889 7.10875 11.6323 6.84297 11.5712C6.57719 11.51 6.47383 11.1619 6.47383 11.1619C6.47383 11.1619 6.37047 11.3265 6.35148 11.4087C6.33039 11.491 6.3093 11.6808 6.3093 11.6808C6.3093 11.6808 6.59617 11.9825 6.65734 12.4128C6.71852 12.8431 6.63625 14.6255 6.33039 14.5833C6.02242 14.5433 6.12367 13.0477 4.95719 12.474C3.9468 11.9762 2.43859 12.1259 1.82266 13.3747C1.20883 14.6234 1.65813 16.0979 3.58398 17.4711C5.50984 18.8443 7.56016 19.9981 7.885 21.0992C8.27313 22.4091 7.39352 23.1875 7.39352 23.1875C7.39352 23.1875 8.03266 23.0989 8.34695 22.4134C8.4482 22.1919 8.48617 21.8691 8.50094 21.6772C9.22867 22.6264 10.1969 23.4301 11.4794 23.8182C11.9645 23.9848 12.5109 24.0692 13.2702 24.0692C13.3799 24.0692 13.4875 24.065 13.5951 24.0608C14.4831 24.0291 15.2425 23.8625 15.9787 23.4976C16.9722 23.0377 17.7421 22.3353 18.337 21.538C18.3201 21.7278 18.4361 22.2003 18.6576 22.5737C19.0457 23.2297 19.7017 23.2698 19.7017 23.2698C19.7017 23.2698 18.801 22.7382 18.9845 21.4683C19.168 20.1985 20.0076 19.7471 21.2774 18.9287C22.5515 18.1081 25.4582 16.4291 25.2958 14.4631ZM4.4868 17.2496C3.91516 16.8467 2.9132 16.3088 2.49977 15.4883C1.94922 14.3935 2.39641 13.0709 3.44266 12.9085C5.61531 12.5668 5.65539 15.2647 5.79883 15.5916C5.94227 15.9186 6.35148 15.9397 6.35148 15.9397C6.35148 15.9397 6.36625 16.1211 6.42531 16.4712C6.42742 16.4818 6.42953 16.4902 6.42953 16.5008L6.43586 16.5324C6.47594 16.7708 6.53289 17.0682 6.61305 17.4078L6.61937 17.4331C6.66367 17.6251 6.71008 17.8065 6.75859 17.9731C6.85563 18.3233 6.97375 18.7008 7.1193 19.089C6.90836 18.9455 5.69969 18.1081 4.4868 17.2496ZM24.1694 15.733C23.7159 16.467 22.7983 17.0133 22.1212 17.4732C21.2479 18.0659 19.9485 18.9561 19.5815 19.205C19.6659 18.9814 19.7397 18.7599 19.8072 18.5426C19.9169 18.2558 20.0329 17.9056 20.113 17.528C20.324 16.5366 20.3598 15.6697 20.3598 15.6697C20.3598 15.6697 20.7902 15.792 21.0559 15.5051C21.3217 15.2183 21.4209 14.3281 21.6698 13.9083C22.0579 13.2523 22.8363 12.5773 24.0048 13.3958C24.6798 13.8704 24.7052 14.8639 24.1694 15.733ZM12.7661 24.7294L13.9579 24.7147C13.9579 24.7147 13.9895 26.0162 14.1773 26.9865C14.365 27.9589 14.616 29.0389 14.616 29.0389C14.616 29.0389 12.1881 29.8531 12.2029 28.9756C12.2177 28.0981 12.5784 26.3895 12.5784 26.3895C12.5784 26.3895 12.7977 24.354 12.7661 24.7294Z" fill="#FFA828"/>
<path d="M10.7664 11.2041C10.7664 11.2041 12.0932 11.0544 13.3272 11.0733C14.5612 11.0923 15.831 11.3349 15.831 11.3349C15.831 11.3349 15.7572 15.4651 15.5315 17.7833C15.3079 20.1015 14.4304 21.8375 14.1963 22.329C13.9706 22.8057 13.806 23.0609 13.806 23.0609L12.6163 22.9217L10.5597 18.7916L10.7664 11.2041Z" fill="#FFA828"/>
<path d="M11.8696 23.9068C11.8696 23.9068 12.2429 23.5419 13.2702 23.5419C14.2975 23.5419 14.7383 23.9363 14.7383 23.9363L14.7657 25.204C14.7657 25.204 14.0823 24.991 13.2512 24.9805C12.5593 24.972 11.8147 25.2294 11.8147 25.2294L11.8696 23.9068ZM7.38293 11.3159C7.5559 11.1556 9.21387 9.91108 13.1394 9.87733C17.3624 9.83936 18.9465 11.0628 19.0457 11.1303C19.1575 11.2041 19.2882 11.5416 19.2334 11.6914C19.1764 11.8412 19.0647 11.896 18.7482 11.7652C18.4297 11.6344 16.8604 10.489 13.0846 10.6072C9.45856 10.719 7.92082 11.8222 7.7584 11.915C7.62762 11.9888 7.38504 12.0078 7.27325 11.858C7.15934 11.7104 7.27114 11.4214 7.38293 11.3159ZM19.2334 12.1955C18.7482 12.2335 19.0836 16.1401 18.0564 18.5869C16.9553 21.2047 15.5504 21.9514 15.6074 22.1012C15.6643 22.2509 17.0397 21.8354 17.9066 20.6056C18.7103 19.4665 19.1954 18.4562 19.4211 17.1104C19.6426 15.7646 19.7734 12.1533 19.2334 12.1955ZM7.27957 12.6427C7.15723 12.6364 7.28168 14.5855 7.0834 15.4419C7.00746 15.7709 6.82184 15.8384 6.80285 15.9123C6.78387 15.9861 7.20996 18.4941 7.92504 19.5952C8.61692 20.6605 9.98168 21.9873 10.2053 21.7637C10.4289 21.5401 9.21387 20.7912 8.39332 19.1649C7.92082 18.2326 7.43989 16.8277 7.4209 15.2204C7.40825 14.1573 7.54114 12.6575 7.27957 12.6427Z" fill="#D1701C"/>
<path d="M5.50012 3L4.88037 4.49392L3.00012 4.52486L4.50222 5.48398L3.956 7L5.50012 6.09392M5.50012 3L6.11987 4.49392L8.00012 4.52486L6.49802 5.48398L7.04424 7L5.50012 6.09392" stroke="#FCFA06" stroke-width="2" stroke-linecap="round" stroke-linejoin="round"/>
<path d="M13.5001 1L12.8804 2.49392L11.0001 2.52486L12.5022 3.48398L11.956 5L13.5001 4.09392M13.5001 1L14.1199 2.49392L16.0001 2.52486L14.498 3.48398L15.0442 5L13.5001 4.09392" stroke="#FCFA06" stroke-width="2" stroke-linecap="round" stroke-linejoin="round"/>
<path d="M21.5001 3L20.8804 4.49392L19.0001 4.52486L20.5022 5.48398L19.956 7L21.5001 6.09392M21.5001 3L22.1199 4.49392L24.0001 4.52486L22.498 5.48398L23.0442 7L21.5001 6.09392" stroke="#FCFA06" stroke-width="2" stroke-linecap="round" stroke-linejoin="round"/>
</svg>
